# xmcd CD database file
#
# Track frame offsets:
#	150
#	18015
#	33435
#	52495
#	65875
#	78322
#	98667
#	117750
#	131317
#	151982
#	165767
#	179867
#	191674
#	206800
#	223505
#	235295
#	250130
#
# Disc length: 3531 seconds
#
# Revision: 0
# Processed by: cddbd v1.5.1PL0 Copyright (c) Steve Scherf et al.
# Submitted via: CDex 1.51
#
DISCID=eb0dc911
DTITLE=Louis Armstrong - Jazz Masters 2
DYEAR=1900
DGENRE=Jazz
TTITLE0=Boy from New Orleans
TTITLE1=High Society
TTITLE2=Back O'Town Blues
TTITLE3=Mahogany Hall Stomp
TTITLE4=Sweet Sue, Just You
TTITLE5=Medley of Armstrong Hits: When You're Smiling, St. James Infirmary, Dinah
TTITLE6=Snafu
TTITLE7=Jack Armstrong Blues
TTITLE8=Save It Pretty Mama
TTITLE9=I Want a Little Girl
TTITLE10=When the Blues Were Born in New Orleans
TTITLE11=Honey, Do!
TTITLE12=A song Was Born
TTITLE13=Pennies from Heaven
TTITLE14=Blues for Yesterday
TTITLE15=There's a Cabin in the Pines
TTITLE16=Blues, Boy
EXTD=
EXTT0=
EXTT1=
EXTT2=
EXTT3=
EXTT4=
EXTT5=
EXTT6=
EXTT7=
EXTT8=
EXTT9=
EXTT10=
EXTT11=
EXTT12=
EXTT13=
EXTT14=
EXTT15=
EXTT16=
PLAYORDER=
